<?xml version="1.0" encoding="UTF-8"?>
<!DOCTYPE svg PUBLIC "-//W3C//DTD SVG 1.1//EN" "http://www.w3.org/Graphics/SVG/1.1/DTD/svg11.dtd">
<!-- Creator: CorelDRAW 2019 (64 Bit) -->
<svg xmlns="http://www.w3.org/2000/svg" xml:space="preserve" width="41.44mm" height="41.44mm" version="1.1" style="shape-rendering:geometricPrecision; text-rendering:geometricPrecision; image-rendering:optimizeQuality; fill-rule:evenodd; clip-rule:evenodd"
viewBox="0 0 4144 4144"
 xmlns:xlink="http://www.w3.org/1999/xlink">
 <defs>
  <style type="text/css">
   <![CDATA[
    .fil0 {fill:white}
    .fil1 {fill:#F29A03;fill-rule:nonzero}
    .fil2 {fill:url(#id0)}
    .fil3 {fill:url(#id1)}
   ]]>
  </style>
  <radialGradient id="id0" gradientUnits="userSpaceOnUse" gradientTransform="matrix(1 -0 -0 1.00001 0 0)" cx="1613.75" cy="2074.33" r="1947.61" fx="1613.75" fy="2074.33">
   <stop offset="0" style="stop-opacity:1; stop-color:#0177BC"/>
   <stop offset="0.639216" style="stop-opacity:1; stop-color:#0177BC"/>
   <stop offset="0.94902" style="stop-opacity:1; stop-color:#0166AB"/>
   <stop offset="1" style="stop-opacity:1; stop-color:#01569A"/>
  </radialGradient>
  <radialGradient id="id1" gradientUnits="userSpaceOnUse" gradientTransform="matrix(15.735 -0 -0 15.7348 -41240 -36052)" xlink:href="#id0" cx="2798.78" cy="2446.71" r="881.44" fx="2798.78" fy="2446.71">
  </radialGradient>
 </defs>
 <g id="Camada_x0020_1">
  <metadata id="CorelCorpID_0Corel-Layer"/>
  <g id="_2433080488320">
   <circle class="fil0" cx="2069.67" cy="2074.33" r="1867.67"/>
   <g>
    <path class="fil1" d="M2470.77 1234.5l180.69 0c7.08,0 16.69,57.9 29,173.61 0,3 16.1,123.65 48.29,361.75l2.34 0c9.6,-8.92 14.44,-15.42 14.44,-19.4l4.85 0 0 2.33c-8.53,27.45 -18.91,41.22 -31.22,41.22l-12.22 2.23 0 7.37c10.37,3.2 17.65,4.85 21.81,4.85l4.85 0c27.84,0 45.5,-8.92 52.87,-26.67 150.81,-190.77 233.53,-294.45 248.37,-311.13 8.64,-1.55 16.01,-2.33 21.82,-2.33l164.01 0c3.2,0 4.75,-1.55 4.75,-4.85l0 -2.23 -163.9 0c-14.74,0 -33.27,-4.85 -55.38,-14.45l-2.62 0c-13.97,22.11 -39.76,56.65 -77.3,103.39l-156.53 195.52 -2.53 0c-3.97,0 -6.4,-3.3 -7.08,-9.7 3.79,-6.98 84.97,-109.88 243.44,-308.61l14.54 -2.52 255.47 0c2.42,0 4.84,2.43 7.37,7.37 0,4.95 -57.91,184.96 -173.6,540.11 -5.92,4.76 -11.44,7.18 -16.79,7.18l-140.04 0c-2.33,0 -4.65,-3.2 -7.17,-9.7 16.09,-46.55 57.89,-175.25 125.3,-385.81l-2.24 0c-184.85,221.81 -296.67,353.62 -335.27,395.51l-132.68 0c-9.31,0 -26.19,-83.69 -50.63,-250.9 -2.03,-0.38 -11.73,-48.59 -29,-144.61l-4.75 0c-73.9,228.21 -117.35,359.33 -130.15,393.18l-7.18 4.85 -147.13 0c-3.2,0 -4.84,-1.64 -4.84,-4.85l0 -4.85c0,-4.65 71.47,-226.55 214.52,-665.7 13.49,-48.11 23.96,-72.16 31.52,-72.16zm0 14.45l0 2.33c0,4.75 2.43,15.23 7.08,31.52l-212.2 655.82c3.2,1.45 5.72,2.22 7.37,2.22 11.16,0 16.79,-8.04 16.79,-24.14l209.67 -638.75 118.23 0 0 -7.37 -11.93 -2.23 -103.77 0 -26.38 -19.4 -4.86 0zm631.68 323.16c0,6.79 -32.11,107.26 -96.31,301.42l-19.3 62.47 7.07 0c10.19,0 16.69,-9.6 19.31,-28.9 62.65,-186.8 94.08,-287.18 94.08,-301.24l0 -21.83 -2.63 -11.92 -2.22 0zm-508.89 178.35l0 4.85c9.6,59.36 14.46,92.23 14.46,98.93l2.61 0 0 -7.37c-9.7,-59.17 -14.55,-91.27 -14.55,-96.41l-2.52 0z"/>
    <path class="fil2" d="M2617.61 2167.93c-26.24,-17.74 -18.56,-63.55 -49.36,-77.23 -7.56,-3.37 -16.55,-3.55 -23.32,1.21 -14.61,10.28 -8.11,32.98 -18.87,46.16 -8.1,9.92 -23.27,11.15 -32.49,20.05 -11.75,11.32 -9.83,30.04 -11.1,46.26 -0.01,0.16 -0.03,0.32 -0.04,0.49 -1.81,20.08 -30.17,23.63 -37.53,4.84 -17.17,-43.87 -44.45,-83.83 -79.28,-115.74 -4.72,-4.32 -9.64,-8.55 -15.34,-11.48 -8.14,-4.19 -17.43,-5.51 -26.47,-7.07 -36.25,-6.25 -71.68,-17.19 -105.13,-32.46 -18.67,-8.52 -43.52,-17.35 -57.2,-2.11 19.96,23.18 46.48,46.3 77.01,43.12 8.45,-0.88 17,-3.8 25.08,4.57 6.03,6.25 8.35,15.4 6.4,23.83 -3.1,13.38 -13.99,23.17 -24.95,31.31 -32.99,24.45 -71.72,41.19 -112.21,48.51 -21.44,-45.19 -46.14,-88.85 -73.83,-130.53 -4.92,-7.41 -14.91,-9.1 -21.18,-2.79 -5.23,5.27 -2.53,11.76 0.12,17.24 15.67,32.57 31.34,65.13 47.01,97.69 5.22,10.85 10.63,21.96 19.43,30.21 25.36,23.81 66.12,14.94 99.4,4.55 -6.27,44.05 -31.04,85.21 -67.14,111.51 -23.97,17.47 -55.62,32.95 -59.43,62.25 -2.37,18.26 7.48,35.54 14.27,52.67 6.78,17.12 9.7,39.01 -3.49,51.92 -6,5.86 -14.25,8.67 -21.76,12.44 -27.64,13.89 -46.59,43.49 -47.52,74.28 -0.72,23.98 8.57,48.8 -42.07,67.79 -16.09,6.02 -33.33,8.24 -50.48,6.99 -6.67,-0.48 -13.53,-1.43 -19.07,-5.11 -12.89,-8.57 -12.88,-26.85 -15.67,-42.02 -10.36,-56.39 -75.92,-101.4 -60.24,-156.56 3.42,-12.04 10.74,-23.21 10.99,-35.73 0.52,-24.16 -23.98,-40.24 -37.12,-60.57 -12.17,-18.84 -14.51,-43.6 -6.08,-64.37 -7.36,8.8 -22.08,5.18 -30.96,-2.11 -8.88,-7.29 -15.69,-17.52 -26.33,-21.89 -10.74,-4.41 -22.89,-1.85 -34.42,-0.39 -50.37,6.33 -104.66,-12.65 -135.39,-52.82 -30.72,-40.18 -33.38,-101.13 -1.73,-140.6 21.05,-26.26 54.19,-41.63 78.97,-63.78 13.91,-12.44 31.28,-20.99 49.93,-22.46 27.46,-2.17 58.05,-26.28 88.29,-29.69 9.29,-1.05 20.19,0.79 25.03,8.75 3.41,5.61 2.86,12.63 4.23,19.03 5.12,23.75 35.03,33.18 59.29,30.37 24.27,-2.8 47.89,-13.2 72.2,-10.79 29.07,2.88 54.96,23.86 86.28,11.71 15.16,-5.88 22.3,-22.99 14.04,-36.94 -15.93,-26.93 -67.63,3.2 -86.96,-21.57 -6.69,-8.57 -6.27,-20.66 -10.95,-30.46 -4.68,-9.81 -20.96,-15.47 -25.41,-5.56 8.23,11.96 0.33,31.2 -13.96,34.03 -9.05,-41.53 -42.2,-76.96 -83.2,-88.94 -6.86,10.51 0.45,24.5 9.21,33.5 8.77,9 19.8,17.62 21.48,30.04 1.69,12.41 -15.51,25.18 -23.23,15.28 -2.75,-26.99 -19.63,-52.15 -43.62,-65.07 -5.63,9.11 -18.48,9.3 -28.96,11.69 -18.61,4.22 -34.3,19.21 -39.3,37.51 -2.24,8.17 -2.66,17.28 -7.98,23.9 -5.57,6.93 -15.09,9.28 -23.98,9.98 -26.18,2.06 -55.56,-8.63 -63.73,-35.53 -4.12,-13.59 -0.11,-28.88 11.12,-37.66 20.75,-16.25 43.57,3.23 65.27,-4.7 7.2,-2.63 12.93,-8.92 13.06,-16.55 0.07,-5.11 -2.16,-9.13 -5.64,-12.55 -14.77,-14.55 -10.83,-39.21 8.67,-46.36 13.66,-5.02 27.1,-10.61 40.3,-16.75 -0.9,-19.67 20.57,-33.56 40.3,-35.34 19.72,-1.79 39.49,4.02 59.26,2.63 19.75,-1.39 41.61,-14.22 41.88,-33.91 0.14,-10.07 -5.17,-21.36 0.84,-29.46 10.62,-14.31 44.33,-1.69 44.02,-21.82 -0.23,-14.2 -12.24,-20.4 -25.62,-15.44 -23.1,8.56 -39.82,-18.46 -30.4,-35.95 3.87,-7.2 11.05,-12.27 14.74,-19.59 3.7,-7.31 0.97,-19 -7.25,-19.31 -36.13,5.12 -54.2,49.14 -48.37,84.95 2.4,14.76 7.58,29.85 0.02,44.19 -3.78,7.18 -11.52,12.05 -19.58,10.77 -13.24,-2.1 -15.44,-17 -23.84,-25.5 -13.1,-13.25 -38.85,-8.69 -43.43,-34 -1.33,-7.31 -0.16,-14.91 2.86,-21.7 8.88,-19.98 28.56,-31.77 39.44,-50.05 13.98,-23.48 11.4,-54.02 25.52,-77.42 16.5,-27.34 52.52,-37.9 84.3,-33.6 37.21,5.03 70.17,26.46 102.38,44.59 10.56,5.93 14.91,19.56 8.51,29.81 -12.08,19.31 -42.99,-3.52 -58.11,10.65 0.87,21.2 26.17,34.47 47.22,30.97 21.05,-3.51 38.15,-18.28 54.03,-32.46 21.14,-18.86 42.28,-37.73 63.42,-56.59 20.44,-18.24 52.14,-36.66 72.75,-20.47 13.17,10.35 36.31,14.08 51.42,6.81 23.75,-11.43 23.77,-34.27 24.37,-54.99 0.44,-14.71 2.08,-30.8 12.55,-41.23 8.77,-8.73 22.86,-12.46 28.07,-23.67 3.67,-7.87 1.71,-17.06 2.47,-25.69 0.49,-5.4 1.98,-10.31 4.21,-14.86 -185.24,-177.18 -436.17,-286.21 -712.73,-286.21 -302.07,0 -573.8,129.86 -762.45,336.77 22.98,17.13 38.49,45.77 66.26,52.76 10.53,2.65 21.58,1.7 32.44,2.17 37.06,1.62 74.43,22.85 88.32,57.05 13.9,34.21 -0.29,77.88 -35.12,90.58 -28.76,-9.63 -63.76,8.77 -71.94,37.83 -8.17,29.06 12.14,62.85 41.75,69.46 8.69,1.93 17.96,1.85 26,5.63 10.51,4.94 16.98,15.43 25.15,23.64 8.67,8.72 20.92,15.55 34.32,6.86 6.33,-4.11 10.54,-10.88 12.28,-18.2 4.58,-19.18 -4.14,-36.98 -7.15,-55.51 -2.78,-17.08 1.17,-37.89 18.97,-43.76 11.27,-3.73 23.43,0.46 32,8.63 13.71,13.07 17.21,31.96 20.34,49.96 0.12,-0.07 0.27,-0.14 0.41,-0.2 25.08,-12.52 55.42,4 60.37,31.47 0.26,1.43 0.52,2.86 0.81,4.27 3.3,16.19 9.7,31.75 18.76,45.6 6.58,10.06 14.67,19.49 18.09,30.98 7.19,24.18 -12.58,52.42 -37.88,54.11 -16.44,1.11 -34.84,-6.84 -48.73,0.93 -1.87,1.04 -3.37,2.67 -4.58,4.43 -16.9,24.8 -22.8,50.37 -48.13,49.3 -18.42,-0.76 -37.01,2.55 -54.02,9.64 -6.14,2.56 -12.62,6.19 -14.75,12.47 -2.72,8 2.72,16.19 5.1,24.3 4.42,15.04 -2.27,31.7 -13.46,42.74 -11.19,11.04 -22.25,26.67 -38.01,26.49 -15.11,-0.17 -29.71,10.38 -34.23,24.71 -1.94,6.19 -2.14,12.79 -3.54,19.13 -1.37,6.26 -4.27,12.69 -9.81,15.93 -6.77,3.97 -15.69,-0.39 -16.7,-8.13 -3.04,-23.39 -28.6,-40.09 -52.89,-40.78 -34.12,-0.98 -69.43,24.35 -67.82,62 0.4,9.6 3.52,19.04 8.83,27.07 14.32,21.69 36.64,22.81 57.79,23.48 13.48,0.44 27.42,0.9 39.6,6.68 12.17,5.79 22.14,18.43 20.34,31.72 -1.14,8.33 -6.07,18.38 0.28,23.93 3.82,3.35 9.71,2.62 14.42,4.57 8.81,3.63 10.86,14.84 15.98,22.84 7.11,11.13 30.34,14.84 42.86,10.54 2.17,-27.3 36.98,-46.14 61.22,-33.14 11.69,6.28 22.22,18.52 35.26,16.04 4.75,-0.9 8.88,-3.75 13.49,-5.25 11.65,-3.82 24.15,1.39 35.29,6.5 29.53,13.52 60.04,27.78 81.04,52.46 12.43,14.63 21.34,32.71 37.07,43.77 17.17,12.08 39.46,13.65 60.49,14.25 20.99,0.6 43,0.89 61.38,11.01 21.59,11.89 31.52,41.65 24,65.03 -4.5,14.02 -11.4,27.29 -20.31,39.03 -9.39,12.36 -21.53,24.25 -22.98,39.67 -1.04,10.96 3.64,21.57 5.49,32.43 1.5,8.82 1.02,18.26 -3.14,26.19 -4.17,7.94 -10.09,16.16 -18.97,17.59 -28.85,4.66 -64.61,-13.47 -77.32,30.81 -2.42,8.45 -1.86,17.38 0.04,25.98 8.45,38.07 -17.49,72.81 -50.58,88.63 -6.41,3.07 -13.36,5.71 -18.07,11.02 -10.15,11.44 -7.91,32.73 -21.95,38.89 -4.28,1.87 -9.18,1.73 -13.6,3.23 -9.71,3.28 -15.24,14.01 -15.59,24.19 -0.35,10.19 5.62,20.16 5.91,30.35 0.29,10.83 -3.44,21.73 -10.34,30.13 -4.55,5.54 -10.71,10.68 -11.29,17.8 -0.51,6.36 3.67,12.02 7.64,17.02 12.62,15.91 29.92,31.1 39.65,48.89 3.07,5.61 2.12,13.13 -2.25,17.82 -4.36,4.69 -11.68,8.85 -17.64,6.45 -53.9,-21.73 -94.11,-70.98 -111.29,-126.22 -17.19,-55.24 -12.83,-115.68 5.14,-170.68 9.79,-29.96 23.57,-58.89 28.31,-90.07 5.29,-34.75 -15.22,-80.53 -43.56,-101.54 -18.39,-13.61 -37.12,-24.89 -53.46,-42.9 -12.12,-13.38 -24.24,-27.48 -29.98,-44.56 -5.74,-17.07 -3.66,-37.95 9.64,-50.15 7.67,-7.04 18.83,-11.3 22.52,-21 4.59,-12.04 -10.25,-26.51 -6.47,-38.82 -16.21,1.44 -32.94,-5.57 -43.24,-18.11 -3.82,-4.66 -6.8,-10.02 -11.15,-14.2 -16.86,-16.2 -47.57,-9.47 -64.23,-25.86 -3.46,-3.39 -6.05,-7.59 -9.65,-10.83 -7.8,-7.01 -18.95,-8.5 -29.3,-10.38 -19.96,-3.6 -46.01,-8.05 -61.88,-20.6 -21.79,-17.22 -37.89,-41.43 -45.31,-68.1 -4.28,-15.41 -5.74,-31.52 -10.59,-46.74 -9.68,-30.34 -33.91,-56.3 -62,-71.56 -19.42,-10.55 -38.46,-25.43 -48.62,-44.3 -6.88,48.13 -10.64,97.26 -10.64,147.29 0,569.71 461.85,1031.55 1031.56,1031.55 539.39,0 981.81,-414.06 1027.41,-941.63 -8.54,1.23 -17.08,2.46 -25.62,3.68zm-1100.13 -633.4l0 0c-21.95,17.39 -54.37,12.81 -79.56,25.1 -17.49,8.52 -29.98,24.37 -44.34,37.46 -14.36,13.09 -33.55,24.18 -52.49,19.64 -14.9,-3.57 -25.94,-16.03 -34.04,-28.97 -8.37,-13.36 -14.77,-28.18 -16.65,-43.81 -3.98,-33.13 12.38,-64.8 23.98,-96.11 11.59,-31.32 17.61,-69.6 -3.56,-95.49 -13.17,-16.11 -34.03,-23.61 -50.69,-36.13 -16.67,-12.51 -29.48,-36.18 -18.04,-53.54 16.29,-24.72 53.7,-10.6 73.96,-28.59 23.43,-20.81 12.94,-55.87 48.68,-70.78 23.19,-9.67 49.65,0.41 73.6,1.49 44.05,1.99 87.4,-7.46 130.32,7.6 34.78,12.19 65.82,42.66 66.66,79.31 0.26,11.34 -2.33,22.6 -6.11,33.31 -19.27,54.74 -68.57,96.56 -81.1,153.2 -7.48,33.73 -3.46,74.79 -30.62,96.31l0 0z"/>
    <path class="fil3" d="M2809.15 2041.4l0 4.97c0,2.58 2.38,12.42 7.24,29.7 -100.34,312.27 -150.51,470.24 -150.51,474.11l4.96 2.68c11.04,0 20.07,-18.18 27.12,-54.44 14.71,-38.84 60.81,-180.42 138.21,-424.93l205.26 0 12.22 -2.38 0 -4.97 -12.22 -2.29 -192.74 0c-5.08,0 -17.48,-7.44 -37.26,-22.45l-2.28 0zm318.72 652.05l207.54 0c3.88,-3.08 7.06,-4.67 9.54,-4.67 131.75,-405.76 201.78,-623.93 210.13,-654.63 -2.49,-5.07 -4.96,-7.55 -7.55,-7.55l-153.1 0c-5.36,0 -11.13,2.48 -17.18,7.55 -52.76,157.77 -91.42,280.37 -116.05,367.9l0 4.96c0,3.89 6.55,8.05 19.77,12.52l4.96 -2.57c6.57,-17.89 42.73,-131.55 108.5,-340.89 -4.87,-13.61 -7.25,-23.45 -7.25,-29.7l0 -4.97c22.35,15.01 35.46,22.45 39.34,22.45l66.86 0 4.98 2.29c-1.3,4.87 -6.27,7.35 -14.82,7.35l-69.24 0c-51.07,156.58 -89.81,280.07 -116.15,370.49 -4.86,21.55 -20.46,32.29 -46.89,32.29 -21.36,-1.69 -31.99,-4.97 -31.99,-9.84l2.29 -4.97c19.76,0 29.7,-9.14 29.7,-27.32l-7.26 0c-38.05,-97.07 -57.81,-146.45 -59.41,-148.24 -54.34,-157.97 -88.92,-244.4 -103.92,-259.3l-266.56 0c-11.12,0 -22.65,22.25 -34.67,66.66 -105.41,325.78 -158.06,490.51 -158.06,494.18l0 2.39c0,3.28 1.67,4.96 4.96,4.96l155.67 0 17.2 -4.96 81.46 -254.45c28.03,-93.88 43.62,-140.88 46.9,-140.88l4.97 0c28.11,77.49 75.11,200.99 140.89,370.59 28.9,75.9 47.08,118.62 54.44,128.36z"/>
   </g>
  </g>
 </g>
</svg>
